# Exported from Unity
g wall (45)
v 2.499996 0.9999979 -2.5
v 2.499995 0.9999973 -3.5
v 2.499995 1.999997 -3.500001
v 2.499996 1.999998 -2.500001
vn -1 -1.192093E-07 8.850838E-07
vn -1 -1.192093E-07 8.850838E-07
vn -1 -1.192093E-07 8.850838E-07
vn -1 -1.192093E-07 8.850838E-07
vt 0 0
vt 0 1
vt 1 1
vt 1 0
f 1/1/1 3/3/3 2/2/2
f 1/1/1 4/4/4 3/3/3
g wall (4)
v 2.5 2.143499E-07 -2.5
v 2.5 -3.335592E-07 -3.5
v 2.5 0.9999998 -3.5
v 2.5 1 -2.5
vn -1 -1.192093E-07 8.850838E-07
vn -1 -1.192093E-07 8.850838E-07
vn -1 -1.192093E-07 8.850838E-07
vn -1 -1.192093E-07 8.850838E-07
vt 0 0
vt 0 1
vt 1 1
vt 1 0
f 5/5/5 7/7/7 6/6/6
f 5/5/5 8/8/8 7/7/7
g wall (5)
v 2.5 2.143499E-07 -1.5
v 2.5 -3.335592E-07 -2.5
v 2.5 0.9999998 -2.5
v 2.5 1 -1.5
vn -1 -1.192093E-07 8.850838E-07
vn -1 -1.192093E-07 8.850838E-07
vn -1 -1.192093E-07 8.850838E-07
vn -1 -1.192093E-07 8.850838E-07
vt 0 0
vt 0 1
vt 1 1
vt 1 0
f 9/9/9 11/11/11 10/10/10
f 9/9/9 12/12/12 11/11/11
g wall (44)
v 2.499997 0.9999985 -1.5
v 2.499996 0.9999979 -2.5
v 2.499996 1.999998 -2.500001
v 2.499997 1.999999 -1.500001
vn -1 -1.192093E-07 8.850838E-07
vn -1 -1.192093E-07 8.850838E-07
vn -1 -1.192093E-07 8.850838E-07
vn -1 -1.192093E-07 8.850838E-07
vt 0 0
vt 0 1
vt 1 1
vt 1 0
f 13/13/13 15/15/15 14/14/14
f 13/13/13 16/16/16 15/15/15
g wall (43)
v 2.499998 0.999999 -0.5000002
v 2.499997 0.9999985 -1.5
v 2.499997 1.999999 -1.500001
v 2.499998 1.999999 -0.5000008
vn -1 -1.192093E-07 8.850838E-07
vn -1 -1.192093E-07 8.850838E-07
vn -1 -1.192093E-07 8.850838E-07
vn -1 -1.192093E-07 8.850838E-07
vt 0 0
vt 0 1
vt 1 1
vt 1 0
f 17/17/17 19/19/19 18/18/18
f 17/17/17 20/20/20 19/19/19
g wall (42)
v 2.499999 0.9999996 0.4999997
v 2.499998 0.999999 -0.5000002
v 2.499998 1.999999 -0.5000008
v 2.499999 2 0.4999992
vn -1 -1.192093E-07 8.850838E-07
vn -1 -1.192093E-07 8.850838E-07
vn -1 -1.192093E-07 8.850838E-07
vn -1 -1.192093E-07 8.850838E-07
vt 0 0
vt 0 1
vt 1 1
vt 1 0
f 21/21/21 23/23/23 22/22/22
f 21/21/21 24/24/24 23/23/23
g wall (7)
v 2.5 2.143499E-07 0.5000003
v 2.5 -3.335592E-07 -0.4999997
v 2.5 0.9999998 -0.5000003
v 2.5 1 0.4999997
vn -1 -1.192093E-07 8.850838E-07
vn -1 -1.192093E-07 8.850838E-07
vn -1 -1.192093E-07 8.850838E-07
vn -1 -1.192093E-07 8.850838E-07
vt 0 0
vt 0 1
vt 1 1
vt 1 0
f 25/25/25 27/27/27 26/26/26
f 25/25/25 28/28/28 27/27/27
g wall (41)
v 2.5 1 1.5
v 2.499999 0.9999996 0.4999997
v 2.499999 2 0.4999992
v 2.5 2 1.499999
vn -1 -1.192093E-07 8.850838E-07
vn -1 -1.192093E-07 8.850838E-07
vn -1 -1.192093E-07 8.850838E-07
vn -1 -1.192093E-07 8.850838E-07
vt 0 0
vt 0 1
vt 1 1
vt 1 0
f 29/29/29 31/31/31 30/30/30
f 29/29/29 32/32/32 31/31/31
g wall (6)
v 2.5 2.143499E-07 -0.4999997
v 2.5 -3.335592E-07 -1.5
v 2.5 0.9999998 -1.5
v 2.5 1 -0.5000003
vn -1 -1.192093E-07 8.850838E-07
vn -1 -1.192093E-07 8.850838E-07
vn -1 -1.192093E-07 8.850838E-07
vn -1 -1.192093E-07 8.850838E-07
vt 0 0
vt 0 1
vt 1 1
vt 1 0
f 33/33/33 35/35/35 34/34/34
f 33/33/33 36/36/36 35/35/35
g vent_wall (2)
v 2.492813 0.1111111 0.8333333
v 2.492813 0.4444444 0.8333333
v 2.500001 0.4444444 0.8333333
v 2.500001 0.1111111 0.8333333
v 2.500001 0.1111111 1.5
v 2.500001 6.123236E-17 1.5
v 2.500001 2.041079E-17 1.166667
v 2.500001 0.1111111 1.166667
v 2.500001 0.4444444 1.5
v 2.500001 -2.041079E-17 0.8333333
v 2.500001 0.4444444 1.166667
v 2.500001 0.1111111 0.8333333
v 2.500001 1 1.5
v 2.500001 1 1.166667
v 2.500001 1 0.8333333
v 2.500001 -6.123238E-17 0.5
v 2.500001 0.1111111 0.5
v 2.500001 0.4444444 0.5
v 2.500001 0.4444444 0.8333333
v 2.500001 1 0.5
v 2.500001 0.4444444 1.166667
v 2.500001 0.4444444 0.8333333
v 2.492813 0.4444444 0.8333333
v 2.492813 0.4444444 1.166667
v 2.492813 0.1111111 0.8333333
v 2.500001 0.1111111 0.8333333
v 2.500001 0.1111111 1.166667
v 2.492813 0.1111111 1.166667
v 2.492813 0.09557674 1.182201
v 2.492813 0.4599788 1.182201
v 2.52219 0.4599788 1.182201
v 2.52219 0.09557674 1.182201
v 2.492813 0.4599788 1.182201
v 2.492813 0.4599788 0.817799
v 2.52219 0.4599788 0.817799
v 2.52219 0.4599788 1.182201
v 2.52219 0.09557674 0.817799
v 2.52219 0.4599788 0.817799
v 2.492813 0.4599788 0.817799
v 2.492813 0.09557674 0.817799
v 2.52219 0.09557674 0.817799
v 2.492813 0.09557674 0.817799
v 2.492813 0.09557674 1.182201
v 2.52219 0.09557674 1.182201
v 2.500001 0.1111111 1.166667
v 2.500001 0.4444444 1.166667
v 2.492813 0.4444444 1.166667
v 2.492813 0.1111111 1.166667
v 2.492813 0.09557674 0.817799
v 2.492813 0.4444444 0.8333333
v 2.492813 0.1111111 0.8333333
v 2.492813 0.1111111 1.166667
v 2.492813 0.4599788 0.817799
v 2.492813 0.09557674 1.182201
v 2.492813 0.4444444 1.166667
v 2.492813 0.4599788 1.182201
vn 4.768372E-07 1.224647E-16 1
vn 4.768372E-07 1.224647E-16 1
vn 4.768372E-07 1.224647E-16 1
vn 4.768372E-07 1.224647E-16 1
vn -1 -1.224647E-16 4.768372E-07
vn -1 -1.224647E-16 4.768372E-07
vn -1 -1.224647E-16 4.768372E-07
vn -1 -1.224647E-16 4.768372E-07
vn -1 -1.224647E-16 4.768372E-07
vn -1 -1.224647E-16 4.768372E-07
vn -1 -1.224647E-16 4.768372E-07
vn -1 -1.224647E-16 4.768372E-07
vn -1 -1.224647E-16 4.768372E-07
vn -1 -1.224647E-16 4.768372E-07
vn -1 -1.224647E-16 4.768372E-07
vn -1 -1.224647E-16 4.768372E-07
vn -1 -1.224647E-16 4.768372E-07
vn -1 -1.224647E-16 4.768372E-07
vn -1 -1.224647E-16 4.768372E-07
vn -1 -1.224647E-16 4.768372E-07
vn 1.224647E-16 -1 1.224647E-16
vn 1.224647E-16 -1 1.224647E-16
vn 1.224647E-16 -1 1.224647E-16
vn 1.224647E-16 -1 1.224647E-16
vn -1.224647E-16 1 -1.224647E-16
vn -1.224647E-16 1 -1.224647E-16
vn -1.224647E-16 1 -1.224647E-16
vn -1.224647E-16 1 -1.224647E-16
vn 4.768372E-07 1.224647E-16 1
vn 4.768372E-07 1.224647E-16 1
vn 4.768372E-07 1.224647E-16 1
vn 4.768372E-07 1.224647E-16 1
vn -1.224647E-16 1 -1.224647E-16
vn -1.224647E-16 1 -1.224647E-16
vn -1.224647E-16 1 -1.224647E-16
vn -1.224647E-16 1 -1.224647E-16
vn -4.768372E-07 -1.224647E-16 -1
vn -4.768372E-07 -1.224647E-16 -1
vn -4.768372E-07 -1.224647E-16 -1
vn -4.768372E-07 -1.224647E-16 -1
vn 1.224647E-16 -1 1.224647E-16
vn 1.224647E-16 -1 1.224647E-16
vn 1.224647E-16 -1 1.224647E-16
vn 1.224647E-16 -1 1.224647E-16
vn -4.768372E-07 -1.224647E-16 -1
vn -4.768372E-07 -1.224647E-16 -1
vn -4.768372E-07 -1.224647E-16 -1
vn -4.768372E-07 -1.224647E-16 -1
vn -1 -1.224647E-16 4.768372E-07
vn -1 -1.224647E-16 4.768372E-07
vn -1 -1.224647E-16 4.768372E-07
vn -1 -1.224647E-16 4.768372E-07
vn -1 -1.224647E-16 4.768372E-07
vn -1 -1.224647E-16 4.768372E-07
vn -1 -1.224647E-16 4.768372E-07
vn -1 -1.224647E-16 4.768372E-07
vt 0.6666667 0.888889
vt 0.6666667 0.5555556
vt 0.6666667 0.5555556
vt 0.6666667 0.888889
vt 0 0.888889
vt 0 1
vt 0.3333334 1
vt 0.3333334 0.888889
vt 0 0.5555556
vt 0.6666667 1
vt 0.3333333 0.5555555
vt 0.6666667 0.888889
vt 0 0
vt 0.3333333 0
vt 0.6666667 0
vt 1 1
vt 1 0.888889
vt 1 0.5555556
vt 0.6666667 0.5555556
vt 1 0
vt 0.3333333 0.5555555
vt 0.6666667 0.5555556
vt 0.6666667 0.5555556
vt 0.3333333 0.5555555
vt 0.6666667 0.888889
vt 0.6666667 0.888889
vt 0.3333334 0.888889
vt 0.3333334 0.888889
vt 0.3333334 0.888889
vt 0.3333333 0.5555555
vt 0.3333333 0.5555555
vt 0.3333334 0.888889
vt 0.3333333 0.5555555
vt 0.6666667 0.5555556
vt 0.6666667 0.5555556
vt 0.3333333 0.5555555
vt 0.6666667 0.888889
vt 0.6666667 0.5555556
vt 0.6666667 0.5555556
vt 0.6666667 0.888889
vt 0.6666667 0.888889
vt 0.6666667 0.888889
vt 0.3333334 0.888889
vt 0.3333334 0.888889
vt 0.3333334 0.888889
vt 0.3333333 0.5555555
vt 0.3333333 0.5555555
vt 0.3333334 0.888889
vt 0.6666667 0.888889
vt 0.6666667 0.5555556
vt 0.6666667 0.888889
vt 0.3333334 0.888889
vt 0.6666667 0.5555556
vt 0.3333334 0.888889
vt 0.3333333 0.5555555
vt 0.3333333 0.5555555
f 37/37/37 39/39/39 38/38/38
f 37/37/37 40/40/40 39/39/39
f 41/41/41 43/43/43 42/42/42
f 41/41/41 44/44/44 43/43/43
f 45/45/45 44/44/44 41/41/41
f 46/46/46 43/43/43 44/44/44
f 45/45/45 47/47/47 44/44/44
f 46/46/46 44/44/44 48/48/48
f 49/49/49 47/47/47 45/45/45
f 49/49/49 50/50/50 47/47/47
f 47/47/47 50/50/50 51/51/51
f 52/52/52 46/46/46 48/48/48
f 52/52/52 48/48/48 53/53/53
f 48/48/48 54/54/54 53/53/53
f 47/47/47 51/51/51 55/55/55
f 48/48/48 55/55/55 54/54/54
f 55/55/55 51/51/51 56/56/56
f 55/55/55 56/56/56 54/54/54
f 57/57/57 59/59/59 58/58/58
f 57/57/57 60/60/60 59/59/59
f 61/61/61 63/63/63 62/62/62
f 61/61/61 64/64/64 63/63/63
f 65/65/65 67/67/67 66/66/66
f 65/65/65 68/68/68 67/67/67
f 69/69/69 71/71/71 70/70/70
f 69/69/69 72/72/72 71/71/71
f 73/73/73 75/75/75 74/74/74
f 73/73/73 76/76/76 75/75/75
f 77/77/77 79/79/79 78/78/78
f 77/77/77 80/80/80 79/79/79
f 81/81/81 83/83/83 82/82/82
f 81/81/81 84/84/84 83/83/83
f 85/85/85 87/87/87 86/86/86
f 85/85/85 88/88/88 87/87/87
f 85/85/85 86/86/86 89/89/89
f 85/85/85 90/90/90 88/88/88
f 91/91/91 89/89/89 86/86/86
f 88/88/88 90/90/90 92/92/92
f 88/88/88 92/92/92 91/91/91
f 91/91/91 92/92/92 89/89/89
g wall (40)
v 1.5 0.9999979 1.499995
v 2.5 0.9999973 1.499994
v 2.500001 1.999997 1.499994
v 1.500001 1.999998 1.499996
vn -1.370907E-06 5.960464E-08 -1
vn -1.370907E-06 5.960464E-08 -1
vn -1.370907E-06 5.960464E-08 -1
vn -1.370907E-06 5.960464E-08 -1
vt 0 0
vt 0 1
vt 1 1
vt 1 0
f 93/93/93 95/95/95 94/94/94
f 93/93/93 96/96/96 95/95/95
g wall (39)
v 0.5000002 0.9999985 1.499997
v 1.5 0.9999979 1.499995
v 1.500001 1.999998 1.499996
v 0.5000007 1.999998 1.499997
vn -1.370907E-06 5.960464E-08 -1
vn -1.370907E-06 5.960464E-08 -1
vn -1.370907E-06 5.960464E-08 -1
vn -1.370907E-06 5.960464E-08 -1
vt 0 0
vt 0 1
vt 1 1
vt 1 0
f 97/97/97 99/99/99 98/98/98
f 97/97/97 100/100/100 99/99/99
g wall (8)
v 1.5 2.831221E-07 1.500001
v 2.5 -2.831221E-07 1.499999
v 2.5 0.9999997 1.499999
v 1.5 1 1.500001
vn -1.370907E-06 5.960464E-08 -1
vn -1.370907E-06 5.960464E-08 -1
vn -1.370907E-06 5.960464E-08 -1
vn -1.370907E-06 5.960464E-08 -1
vt 0 0
vt 0 1
vt 1 1
vt 1 0
f 101/101/101 103/103/103 102/102/102
f 101/101/101 104/104/104 103/103/103
g wall (9)
v 0.4999997 2.831221E-07 1.500001
v 1.5 -2.831221E-07 1.499999
v 1.5 0.9999997 1.499999
v 0.5000002 1 1.500001
vn -1.370907E-06 5.960464E-08 -1
vn -1.370907E-06 5.960464E-08 -1
vn -1.370907E-06 5.960464E-08 -1
vn -1.370907E-06 5.960464E-08 -1
vt 0 0
vt 0 1
vt 1 1
vt 1 0
f 105/105/105 107/107/107 106/106/106
f 105/105/105 108/108/108 107/107/107
g wall (37)
v -1.5 0.9999997 1.499999
v -0.4999998 0.9999991 1.499998
v -0.4999993 1.999999 1.499998
v -1.499999 2 1.5
vn -1.370907E-06 5.960464E-08 -1
vn -1.370907E-06 5.960464E-08 -1
vn -1.370907E-06 5.960464E-08 -1
vn -1.370907E-06 5.960464E-08 -1
vt 0 0
vt 0 1
vt 1 1
vt 1 0
f 109/109/109 111/111/111 110/110/110
f 109/109/109 112/112/112 111/111/111
g wall (10)
v -0.5000002 2.831221E-07 1.500001
v 0.4999997 -2.831221E-07 1.499999
v 0.5000002 0.9999997 1.499999
v -0.4999997 1 1.500001
vn -1.370907E-06 5.960464E-08 -1
vn -1.370907E-06 5.960464E-08 -1
vn -1.370907E-06 5.960464E-08 -1
vn -1.370907E-06 5.960464E-08 -1
vt 0 0
vt 0 1
vt 1 1
vt 1 0
f 113/113/113 115/115/115 114/114/114
f 113/113/113 116/116/116 115/115/115
g wall (11)
v -1.5 2.831221E-07 1.500001
v -0.5000002 -2.831221E-07 1.499999
v -0.4999997 0.9999997 1.499999
v -1.5 1 1.500001
vn -1.370907E-06 5.960464E-08 -1
vn -1.370907E-06 5.960464E-08 -1
vn -1.370907E-06 5.960464E-08 -1
vn -1.370907E-06 5.960464E-08 -1
vt 0 0
vt 0 1
vt 1 1
vt 1 0
f 117/117/117 119/119/119 118/118/118
f 117/117/117 120/120/120 119/119/119
g wall (38)
v -0.4999998 0.9999991 1.499998
v 0.5000002 0.9999985 1.499997
v 0.5000007 1.999999 1.499997
v -0.4999993 1.999999 1.499998
vn -1.370907E-06 5.960464E-08 -1
vn -1.370907E-06 5.960464E-08 -1
vn -1.370907E-06 5.960464E-08 -1
vn -1.370907E-06 5.960464E-08 -1
vt 0 0
vt 0 1
vt 1 1
vt 1 0
f 121/121/121 123/123/123 122/122/122
f 121/121/121 124/124/124 123/123/123
g wall (36)
v -2.5 1 1.500001
v -1.5 0.9999997 1.499999
v -1.499999 2 1.5
v -2.499999 2 1.500001
vn -1.370907E-06 5.960464E-08 -1
vn -1.370907E-06 5.960464E-08 -1
vn -1.370907E-06 5.960464E-08 -1
vn -1.370907E-06 5.960464E-08 -1
vt 0 0
vt 0 1
vt 1 1
vt 1 0
f 125/125/125 127/127/127 126/126/126
f 125/125/125 128/128/128 127/127/127
g wall (12)
v -2.5 2.831221E-07 1.500001
v -1.5 -2.831221E-07 1.499999
v -1.5 0.9999997 1.499999
v -2.5 1 1.500001
vn -1.370907E-06 5.960464E-08 -1
vn -1.370907E-06 5.960464E-08 -1
vn -1.370907E-06 5.960464E-08 -1
vn -1.370907E-06 5.960464E-08 -1
vt 0 0
vt 0 1
vt 1 1
vt 1 0
f 129/129/129 131/131/131 130/130/130
f 129/129/129 132/132/132 131/131/131
g wall (35)
v -3.5 1 1.500001
v -2.5 0.9999997 1.499999
v -2.499999 2 1.5
v -3.499999 2 1.500001
vn -1.370907E-06 5.960464E-08 -1
vn -1.370907E-06 5.960464E-08 -1
vn -1.370907E-06 5.960464E-08 -1
vn -1.370907E-06 5.960464E-08 -1
vt 0 0
vt 0 1
vt 1 1
vt 1 0
f 133/133/133 135/135/135 134/134/134
f 133/133/133 136/136/136 135/135/135
g wall (13)
v -3.5 2.831221E-07 1.500001
v -2.5 -2.831221E-07 1.499999
v -2.5 0.9999997 1.499999
v -3.5 1 1.500001
vn -1.370907E-06 5.960464E-08 -1
vn -1.370907E-06 5.960464E-08 -1
vn -1.370907E-06 5.960464E-08 -1
vn -1.370907E-06 5.960464E-08 -1
vt 0 0
vt 0 1
vt 1 1
vt 1 0
f 137/137/137 139/139/139 138/138/138
f 137/137/137 140/140/140 139/139/139
g wall (34)
v -3.499995 0.9999985 0.5000003
v -3.499994 0.9999979 1.5
v -3.499994 1.999998 1.500001
v -3.499995 1.999999 0.5000009
vn 1 5.960464E-08 -1.812315E-06
vn 1 5.960464E-08 -1.812315E-06
vn 1 5.960464E-08 -1.812315E-06
vn 1 5.960464E-08 -1.812315E-06
vt 0 0
vt 0 1
vt 1 1
vt 1 0
f 141/141/141 143/143/143 142/142/142
f 141/141/141 144/144/144 143/143/143
g wall (25)
v -3.500001 3.161013E-07 0.4999997
v -3.499999 -3.161013E-07 1.5
v -3.499999 0.9999997 1.5
v -3.500001 1 0.5000003
vn 1 5.960464E-08 -1.812315E-06
vn 1 5.960464E-08 -1.812315E-06
vn 1 5.960464E-08 -1.812315E-06
vn 1 5.960464E-08 -1.812315E-06
vt 0 0
vt 0 1
vt 1 1
vt 1 0
f 145/145/145 147/147/147 146/146/146
f 145/145/145 148/148/148 147/147/147
g wall (33)
v -3.499997 0.9999991 -0.4999997
v -3.499995 0.9999985 0.5000003
v -3.499995 1.999998 0.5000009
v -3.499997 1.999999 -0.4999991
vn 1 5.960464E-08 -1.812315E-06
vn 1 5.960464E-08 -1.812315E-06
vn 1 5.960464E-08 -1.812315E-06
vn 1 5.960464E-08 -1.812315E-06
vt 0 0
vt 0 1
vt 1 1
vt 1 0
f 149/149/149 151/151/151 150/150/150
f 149/149/149 152/152/152 151/151/151
g wall (28)
v -3.499999 0.9999997 -1.5
v -3.499997 0.9999991 -0.4999997
v -3.499997 1.999999 -0.4999991
v -3.499999 2 -1.499999
vn 1 5.960464E-08 -1.812315E-06
vn 1 5.960464E-08 -1.812315E-06
vn 1 5.960464E-08 -1.812315E-06
vn 1 5.960464E-08 -1.812315E-06
vt 0 0
vt 0 1
vt 1 1
vt 1 0
f 153/153/153 155/155/155 154/154/154
f 153/153/153 156/156/156 155/155/155
g wall (14)
v -3.500001 3.161013E-07 -0.5000003
v -3.499999 -3.161013E-07 0.4999997
v -3.499999 0.9999997 0.5000003
v -3.500001 1 -0.4999997
vn 1 5.960464E-08 -1.812315E-06
vn 1 5.960464E-08 -1.812315E-06
vn 1 5.960464E-08 -1.812315E-06
vn 1 5.960464E-08 -1.812315E-06
vt 0 0
vt 0 1
vt 1 1
vt 1 0
f 157/157/157 159/159/159 158/158/158
f 157/157/157 160/160/160 159/159/159
g wall (15)
v -3.500001 3.161013E-07 -1.5
v -3.499999 -3.161013E-07 -0.5000003
v -3.499999 0.9999997 -0.4999997
v -3.500001 1 -1.5
vn 1 5.960464E-08 -1.812315E-06
vn 1 5.960464E-08 -1.812315E-06
vn 1 5.960464E-08 -1.812315E-06
vn 1 5.960464E-08 -1.812315E-06
vt 0 0
vt 0 1
vt 1 1
vt 1 0
f 161/161/161 163/163/163 162/162/162
f 161/161/161 164/164/164 163/163/163
g wall (20)
v -3.500001 1 -2.5
v -3.499999 0.9999997 -1.5
v -3.499999 2 -1.499999
v -3.500001 2 -2.499999
vn 1 5.960464E-08 -1.812315E-06
vn 1 5.960464E-08 -1.812315E-06
vn 1 5.960464E-08 -1.812315E-06
vn 1 5.960464E-08 -1.812315E-06
vt 0 0
vt 0 1
vt 1 1
vt 1 0
f 165/165/165 167/167/167 166/166/166
f 165/165/165 168/168/168 167/167/167
g wall (16)
v -3.500001 3.161013E-07 -2.5
v -3.499999 -3.161013E-07 -1.5
v -3.499999 0.9999997 -1.5
v -3.500001 1 -2.5
vn 1 5.960464E-08 -1.812315E-06
vn 1 5.960464E-08 -1.812315E-06
vn 1 5.960464E-08 -1.812315E-06
vn 1 5.960464E-08 -1.812315E-06
vt 0 0
vt 0 1
vt 1 1
vt 1 0
f 169/169/169 171/171/171 170/170/170
f 169/169/169 172/172/172 171/171/171
g Doorway
v -2.820578 0.7215269 -2.467216
v -2.820578 0.7215269 -2.5
v -3.179422 0.7215269 -2.5
v -3.179422 0.7215269 -2.467216
v -2.79214 0.7215269 -2.5
v -2.79214 0.7482554 -2.467216
v -2.79214 0.7482554 -2.5
v -2.79214 0.7215269 -2.467216
v -2.79214 2.545553E-17 -2.5
v -2.79214 2.947044E-17 -2.467216
v -2.5 0.7215269 -2.5
v -2.5 6.123235E-17 -2.5
v -2.79214 2.545553E-17 -2.5
v -2.79214 0.7215269 -2.5
v -2.5 0.7482554 -2.5
v -2.79214 0.7482554 -2.5
v -2.5 1 -2.5
v -2.79214 1 -2.5
v -2.820578 0.7482554 -2.5
v -2.820578 1 -2.5
v -3.179422 1 -2.5
v -3.179422 0.7482554 -2.5
v -3.179422 0.7482554 -2.467216
v -2.820578 0.7215269 -2.467216
v -3.179422 0.7215269 -2.467216
v -2.820578 0.7482554 -2.467216
v -2.79214 0.7482554 -2.467216
v -2.79214 0.7215269 -2.467216
v -2.820578 2.598775E-17 -2.467216
v -2.79214 2.947044E-17 -2.467216
v -2.79214 0.7482554 -2.5
v -2.79214 0.7482554 -2.467216
v -2.820578 0.7482554 -2.467216
v -2.820578 0.7482554 -2.5
v -3.179422 0.7482554 -2.5
v -3.179422 0.7482554 -2.467216
v -3.20786 0.7482554 -2.5
v -3.20786 0.7482554 -2.467216
v -2.820578 0.7215269 -2.5
v -2.820578 0.7215269 -2.467216
v -2.820578 2.598775E-17 -2.467216
v -2.820578 2.197284E-17 -2.5
v -3.20786 0.7215269 -2.5
v -3.20786 0.7482554 -2.5
v -3.20786 0.7482554 -2.467216
v -3.20786 0.7215269 -2.467216
v -3.20786 -2.545553E-17 -2.5
v -3.20786 -2.144061E-17 -2.467216
v -3.5 0.7215269 -2.5
v -3.20786 -2.545553E-17 -2.5
v -3.5 -6.123234E-17 -2.5
v -3.20786 0.7215269 -2.5
v -3.5 0.7482554 -2.5
v -3.20786 0.7482554 -2.5
v -3.5 1 -2.5
v -3.20786 1 -2.5
v -3.179422 0.7482554 -2.5
v -3.179422 1 -2.5
v -3.20786 0.7482554 -2.467216
v -3.179422 0.7482554 -2.467216
v -3.179422 0.7215269 -2.467216
v -3.20786 0.7215269 -2.467216
v -3.179422 -1.795792E-17 -2.467216
v -3.20786 -2.144061E-17 -2.467216
v -3.179422 0.7215269 -2.5
v -3.179422 -2.197283E-17 -2.5
v -3.179422 -1.795792E-17 -2.467216
v -3.179422 0.7215269 -2.467216
vn 1.224647E-16 -1 1.224647E-16
vn 1.224647E-16 -1 1.224647E-16
vn 1.224647E-16 -1 1.224647E-16
vn 1.224647E-16 -1 1.224647E-16
vn 1 1.224647E-16 -7.34684E-40
vn 1 1.224647E-16 -7.34684E-40
vn 1 1.224647E-16 -7.34684E-40
vn 1 1.224647E-16 -7.34684E-40
vn 1 1.224647E-16 -7.34684E-40
vn 1 1.224647E-16 -7.34684E-40
vn -1.49976E-32 1.224647E-16 1
vn -1.49976E-32 1.224647E-16 1
vn -1.49976E-32 1.224647E-16 1
vn -1.49976E-32 1.224647E-16 1
vn -1.49976E-32 1.224647E-16 1
vn -1.49976E-32 1.224647E-16 1
vn -1.49976E-32 1.224647E-16 1
vn -1.49976E-32 1.224647E-16 1
vn -1.49976E-32 1.224647E-16 1
vn -1.49976E-32 1.224647E-16 1
vn -1.49976E-32 1.224647E-16 1
vn -1.49976E-32 1.224647E-16 1
vn -1.49976E-32 1.224647E-16 1
vn -1.49976E-32 1.224647E-16 1
vn -1.49976E-32 1.224647E-16 1
vn -1.49976E-32 1.224647E-16 1
vn -1.49976E-32 1.224647E-16 1
vn -1.49976E-32 1.224647E-16 1
vn -1.49976E-32 1.224647E-16 1
vn -1.49976E-32 1.224647E-16 1
vn -1.224647E-16 1 -1.224647E-16
vn -1.224647E-16 1 -1.224647E-16
vn -1.224647E-16 1 -1.224647E-16
vn -1.224647E-16 1 -1.224647E-16
vn -1.224647E-16 1 -1.224647E-16
vn -1.224647E-16 1 -1.224647E-16
vn -1.224647E-16 1 -1.224647E-16
vn -1.224647E-16 1 -1.224647E-16
vn -1 -1.224647E-16 7.34684E-40
vn -1 -1.224647E-16 7.34684E-40
vn -1 -1.224647E-16 7.34684E-40
vn -1 -1.224647E-16 7.34684E-40
vn -1 -1.224647E-16 7.34684E-40
vn -1 -1.224647E-16 7.34684E-40
vn -1 -1.224647E-16 7.34684E-40
vn -1 -1.224647E-16 7.34684E-40
vn -1 -1.224647E-16 7.34684E-40
vn -1 -1.224647E-16 7.34684E-40
vn -1.49976E-32 1.224647E-16 1
vn -1.49976E-32 1.224647E-16 1
vn -1.49976E-32 1.224647E-16 1
vn -1.49976E-32 1.224647E-16 1
vn -1.49976E-32 1.224647E-16 1
vn -1.49976E-32 1.224647E-16 1
vn -1.49976E-32 1.224647E-16 1
vn -1.49976E-32 1.224647E-16 1
vn -1.49976E-32 1.224647E-16 1
vn -1.49976E-32 1.224647E-16 1
vn -1.49976E-32 1.224647E-16 1
vn -1.49976E-32 1.224647E-16 1
vn -1.49976E-32 1.224647E-16 1
vn -1.49976E-32 1.224647E-16 1
vn -1.49976E-32 1.224647E-16 1
vn -1.49976E-32 1.224647E-16 1
vn 1 1.224647E-16 -7.34684E-40
vn 1 1.224647E-16 -7.34684E-40
vn 1 1.224647E-16 -7.34684E-40
vn 1 1.224647E-16 -7.34684E-40
vt 0 0
vt 0 0
vt 0 0
vt 0 0
vt 0.2921398 0.278473
vt 0.2921398 0.2517446
vt 0.2921398 0.2517446
vt 0.2921398 0.278473
vt 0.2921398 1
vt 0.2921398 1
vt 0 0.278473
vt 0 1
vt 0.2921398 1
vt 0.2921398 0.278473
vt 0 0.2517446
vt 0.2921398 0.2517446
vt 0 0
vt 0.2921398 0
vt 0.3205782 0.2517446
vt 0.3205782 0
vt 0.3205782 0
vt 0.3205782 0.2517446
vt 0.3205782 0.2517446
vt 0.3205782 0.278473
vt 0.3205782 0.278473
vt 0.3205782 0.2517446
vt 0.2921398 0.2517446
vt 0.2921398 0.278473
vt 0.3205782 1
vt 0.2921398 1
vt 0.2921398 0.2517446
vt 0.2921398 0.2517446
vt 0.3205782 0.2517446
vt 0.3205782 0.2517446
vt 0.3205782 0.2517446
vt 0.3205782 0.2517446
vt 0.2921398 0.2517446
vt 0.2921398 0.2517446
vt 0 0
vt 0 0
vt 0 0
vt 0 0
vt 0.2921398 0.278473
vt 0.2921398 0.2517446
vt 0.2921398 0.2517446
vt 0.2921398 0.278473
vt 0.2921398 1
vt 0.2921398 1
vt 0 0.278473
vt 0.2921398 1
vt 0 1
vt 0.2921398 0.278473
vt 0 0.2517446
vt 0.2921398 0.2517446
vt 0 0
vt 0.2921398 0
vt 0.3205782 0.2517446
vt 0.3205782 0
vt 0.2921398 0.2517446
vt 0.3205782 0.2517446
vt 0.3205782 0.278473
vt 0.2921398 0.278473
vt 0.3205782 1
vt 0.2921398 1
vt 0 0
vt 0 0
vt 0 0
vt 0 0
f 173/173/173 175/175/175 174/174/174
f 173/173/173 176/176/176 175/175/175
f 177/177/177 179/179/179 178/178/178
f 177/177/177 178/178/178 180/180/180
f 181/181/181 177/177/177 180/180/180
f 181/181/181 180/180/180 182/182/182
f 183/183/183 185/185/185 184/184/184
f 183/183/183 186/186/186 185/185/185
f 187/187/187 186/186/186 183/183/183
f 187/187/187 188/188/188 186/186/186
f 189/189/189 188/188/188 187/187/187
f 189/189/189 190/190/190 188/188/188
f 190/190/190 191/191/191 188/188/188
f 190/190/190 192/192/192 191/191/191
f 193/193/193 191/191/191 192/192/192
f 193/193/193 194/194/194 191/191/191
f 195/195/195 197/197/197 196/196/196
f 195/195/195 196/196/196 198/198/198
f 199/199/199 198/198/198 196/196/196
f 199/199/199 196/196/196 200/200/200
f 200/200/200 196/196/196 201/201/201
f 200/200/200 201/201/201 202/202/202
f 203/203/203 205/205/205 204/204/204
f 203/203/203 206/206/206 205/205/205
f 207/207/207 205/205/205 206/206/206
f 207/207/207 208/208/208 205/205/205
f 209/209/209 208/208/208 207/207/207
f 209/209/209 210/210/210 208/208/208
f 211/211/211 213/213/213 212/212/212
f 211/211/211 214/214/214 213/213/213
f 215/215/215 217/217/217 216/216/216
f 215/215/215 218/218/218 217/217/217
f 219/219/219 218/218/218 215/215/215
f 219/219/219 220/220/220 218/218/218
f 221/221/221 223/223/223 222/222/222
f 221/221/221 222/222/222 224/224/224
f 225/225/225 221/221/221 224/224/224
f 225/225/225 224/224/224 226/226/226
f 227/227/227 225/225/225 226/226/226
f 227/227/227 226/226/226 228/228/228
f 228/228/228 226/226/226 229/229/229
f 228/228/228 229/229/229 230/230/230
f 231/231/231 233/233/233 232/232/232
f 231/231/231 234/234/234 233/233/233
f 234/234/234 235/235/235 233/233/233
f 234/234/234 236/236/236 235/235/235
f 237/237/237 239/239/239 238/238/238
f 237/237/237 240/240/240 239/239/239
g wall (60)
v -2.5 0.9999995 -2.5
v -3.5 0.9999986 -2.5
v -3.500001 1.999999 -2.5
v -2.500001 2 -2.5
vn 3.278255E-07 -4.768372E-07 1
vn 3.278255E-07 -4.768372E-07 1
vn 3.278255E-07 -4.768372E-07 1
vn 3.278255E-07 -4.768372E-07 1
vt 0 0
vt 0 1
vt 1 1
vt 1 0
f 241/241/241 243/243/243 242/242/242
f 241/241/241 244/244/244 243/243/243
g wall (2)
v -1.5 1 -2.500001
v -2.5 0.9999995 -2.5
v -2.500001 2 -2.5
v -1.500001 2 -2.5
vn 3.278255E-07 -4.768372E-07 1
vn 3.278255E-07 -4.768372E-07 1
vn 3.278255E-07 -4.768372E-07 1
vn 3.278255E-07 -4.768372E-07 1
vt 0 0
vt 0 1
vt 1 1
vt 1 0
f 245/245/245 247/247/247 246/246/246
f 245/245/245 248/248/248 247/247/247
g wall
v -1.5 5.066395E-07 -2.500001
v -2.5 -5.066395E-07 -2.500001
v -2.5 0.9999995 -2.5
v -1.5 1 -2.500001
vn 3.278255E-07 -4.768372E-07 1
vn 3.278255E-07 -4.768372E-07 1
vn 3.278255E-07 -4.768372E-07 1
vn 3.278255E-07 -4.768372E-07 1
vt 0 0
vt 0 1
vt 1 1
vt 1 0
f 249/249/249 251/251/251 250/250/250
f 249/249/249 252/252/252 251/251/251
g Doorway (1)
v -1.467216 0.7215269 -3.179422
v -1.5 0.7215269 -3.179422
v -1.5 0.7215269 -2.820578
v -1.467216 0.7215269 -2.820578
v -1.5 0.7215269 -3.20786
v -1.467216 0.7482554 -3.20786
v -1.5 0.7482554 -3.20786
v -1.467216 0.7215269 -3.20786
v -1.5 -2.545552E-17 -3.20786
v -1.467216 -2.144061E-17 -3.20786
v -1.5 0.7215269 -3.5
v -1.5 -6.123232E-17 -3.5
v -1.5 -2.545552E-17 -3.20786
v -1.5 0.7215269 -3.20786
v -1.5 0.7482554 -3.5
v -1.5 0.7482554 -3.20786
v -1.5 1 -3.5
v -1.5 1 -3.20786
v -1.5 0.7482554 -3.179422
v -1.5 1 -3.179422
v -1.5 1 -2.820578
v -1.5 0.7482554 -2.820578
v -1.467216 0.7482554 -2.820578
v -1.467216 0.7215269 -3.179422
v -1.467216 0.7215269 -2.820578
v -1.467216 0.7482554 -3.179422
v -1.467216 0.7482554 -3.20786
v -1.467216 0.7215269 -3.20786
v -1.467216 -1.795791E-17 -3.179422
v -1.467216 -2.144061E-17 -3.20786
v -1.5 0.7482554 -3.20786
v -1.467216 0.7482554 -3.20786
v -1.467216 0.7482554 -3.179422
v -1.5 0.7482554 -3.179422
v -1.5 0.7482554 -2.820578
v -1.467216 0.7482554 -2.820578
v -1.5 0.7482554 -2.79214
v -1.467216 0.7482554 -2.79214
v -1.5 0.7215269 -3.179422
v -1.467216 0.7215269 -3.179422
v -1.467216 -1.795791E-17 -3.179422
v -1.5 -2.197282E-17 -3.179422
v -1.5 0.7215269 -2.79214
v -1.5 0.7482554 -2.79214
v -1.467216 0.7482554 -2.79214
v -1.467216 0.7215269 -2.79214
v -1.5 2.545553E-17 -2.79214
v -1.467216 2.947044E-17 -2.79214
v -1.5 0.7215269 -2.5
v -1.5 2.545553E-17 -2.79214
v -1.5 6.123234E-17 -2.5
v -1.5 0.7215269 -2.79214
v -1.5 0.7482554 -2.5
v -1.5 0.7482554 -2.79214
v -1.5 1 -2.5
v -1.5 1 -2.79214
v -1.5 0.7482554 -2.820578
v -1.5 1 -2.820578
v -1.467216 0.7482554 -2.79214
v -1.467216 0.7482554 -2.820578
v -1.467216 0.7215269 -2.820578
v -1.467216 0.7215269 -2.79214
v -1.467216 2.598774E-17 -2.820578
v -1.467216 2.947044E-17 -2.79214
v -1.5 0.7215269 -2.820578
v -1.5 2.197283E-17 -2.820578
v -1.467216 2.598774E-17 -2.820578
v -1.467216 0.7215269 -2.820578
vn 1.224647E-16 -1 1.224647E-16
vn 1.224647E-16 -1 1.224647E-16
vn 1.224647E-16 -1 1.224647E-16
vn 1.224647E-16 -1 1.224647E-16
vn 4.768372E-07 -1.224647E-16 -1
vn 4.768372E-07 -1.224647E-16 -1
vn 4.768372E-07 -1.224647E-16 -1
vn 4.768372E-07 -1.224647E-16 -1
vn 4.768372E-07 -1.224647E-16 -1
vn 4.768372E-07 -1.224647E-16 -1
vn 1 1.224647E-16 4.768372E-07
vn 1 1.224647E-16 4.768372E-07
vn 1 1.224647E-16 4.768372E-07
vn 1 1.224647E-16 4.768372E-07
vn 1 1.224647E-16 4.768372E-07
vn 1 1.224647E-16 4.768372E-07
vn 1 1.224647E-16 4.768372E-07
vn 1 1.224647E-16 4.768372E-07
vn 1 1.224647E-16 4.768372E-07
vn 1 1.224647E-16 4.768372E-07
vn 1 1.224647E-16 4.768372E-07
vn 1 1.224647E-16 4.768372E-07
vn 1 1.224647E-16 4.768372E-07
vn 1 1.224647E-16 4.768372E-07
vn 1 1.224647E-16 4.768372E-07
vn 1 1.224647E-16 4.768372E-07
vn 1 1.224647E-16 4.768372E-07
vn 1 1.224647E-16 4.768372E-07
vn 1 1.224647E-16 4.768372E-07
vn 1 1.224647E-16 4.768372E-07
vn -1.224647E-16 1 -1.224647E-16
vn -1.224647E-16 1 -1.224647E-16
vn -1.224647E-16 1 -1.224647E-16
vn -1.224647E-16 1 -1.224647E-16
vn -1.224647E-16 1 -1.224647E-16
vn -1.224647E-16 1 -1.224647E-16
vn -1.224647E-16 1 -1.224647E-16
vn -1.224647E-16 1 -1.224647E-16
vn -4.768372E-07 1.224647E-16 1
vn -4.768372E-07 1.224647E-16 1
vn -4.768372E-07 1.224647E-16 1
vn -4.768372E-07 1.224647E-16 1
vn -4.768372E-07 1.224647E-16 1
vn -4.768372E-07 1.224647E-16 1
vn -4.768372E-07 1.224647E-16 1
vn -4.768372E-07 1.224647E-16 1
vn -4.768372E-07 1.224647E-16 1
vn -4.768372E-07 1.224647E-16 1
vn 1 1.224647E-16 4.768372E-07
vn 1 1.224647E-16 4.768372E-07
vn 1 1.224647E-16 4.768372E-07
vn 1 1.224647E-16 4.768372E-07
vn 1 1.224647E-16 4.768372E-07
vn 1 1.224647E-16 4.768372E-07
vn 1 1.224647E-16 4.768372E-07
vn 1 1.224647E-16 4.768372E-07
vn 1 1.224647E-16 4.768372E-07
vn 1 1.224647E-16 4.768372E-07
vn 1 1.224647E-16 4.768372E-07
vn 1 1.224647E-16 4.768372E-07
vn 1 1.224647E-16 4.768372E-07
vn 1 1.224647E-16 4.768372E-07
vn 1 1.224647E-16 4.768372E-07
vn 1 1.224647E-16 4.768372E-07
vn 4.768372E-07 -1.224647E-16 -1
vn 4.768372E-07 -1.224647E-16 -1
vn 4.768372E-07 -1.224647E-16 -1
vn 4.768372E-07 -1.224647E-16 -1
vt 0 0
vt 0 0
vt 0 0
vt 0 0
vt 0.2921398 0.278473
vt 0.2921398 0.2517446
vt 0.2921398 0.2517446
vt 0.2921398 0.278473
vt 0.2921398 1
vt 0.2921398 1
vt 0 0.278473
vt 0 1
vt 0.2921398 1
vt 0.2921398 0.278473
vt 0 0.2517446
vt 0.2921398 0.2517446
vt 0 0
vt 0.2921398 0
vt 0.3205782 0.2517446
vt 0.3205782 0
vt 0.3205782 0
vt 0.3205782 0.2517446
vt 0.3205782 0.2517446
vt 0.3205782 0.278473
vt 0.3205782 0.278473
vt 0.3205782 0.2517446
vt 0.2921398 0.2517446
vt 0.2921398 0.278473
vt 0.3205782 1
vt 0.2921398 1
vt 0.2921398 0.2517446
vt 0.2921398 0.2517446
vt 0.3205782 0.2517446
vt 0.3205782 0.2517446
vt 0.3205782 0.2517446
vt 0.3205782 0.2517446
vt 0.2921398 0.2517446
vt 0.2921398 0.2517446
vt 0 0
vt 0 0
vt 0 0
vt 0 0
vt 0.2921398 0.278473
vt 0.2921398 0.2517446
vt 0.2921398 0.2517446
vt 0.2921398 0.278473
vt 0.2921398 1
vt 0.2921398 1
vt 0 0.278473
vt 0.2921398 1
vt 0 1
vt 0.2921398 0.278473
vt 0 0.2517446
vt 0.2921398 0.2517446
vt 0 0
vt 0.2921398 0
vt 0.3205782 0.2517446
vt 0.3205782 0
vt 0.2921398 0.2517446
vt 0.3205782 0.2517446
vt 0.3205782 0.278473
vt 0.2921398 0.278473
vt 0.3205782 1
vt 0.2921398 1
vt 0 0
vt 0 0
vt 0 0
vt 0 0
f 253/253/253 255/255/255 254/254/254
f 253/253/253 256/256/256 255/255/255
f 257/257/257 259/259/259 258/258/258
f 257/257/257 258/258/258 260/260/260
f 261/261/261 257/257/257 260/260/260
f 261/261/261 260/260/260 262/262/262
f 263/263/263 265/265/265 264/264/264
f 263/263/263 266/266/266 265/265/265
f 267/267/267 266/266/266 263/263/263
f 267/267/267 268/268/268 266/266/266
f 269/269/269 268/268/268 267/267/267
f 269/269/269 270/270/270 268/268/268
f 270/270/270 271/271/271 268/268/268
f 270/270/270 272/272/272 271/271/271
f 273/273/273 271/271/271 272/272/272
f 273/273/273 274/274/274 271/271/271
f 275/275/275 277/277/277 276/276/276
f 275/275/275 276/276/276 278/278/278
f 279/279/279 278/278/278 276/276/276
f 279/279/279 276/276/276 280/280/280
f 280/280/280 276/276/276 281/281/281
f 280/280/280 281/281/281 282/282/282
f 283/283/283 285/285/285 284/284/284
f 283/283/283 286/286/286 285/285/285
f 287/287/287 285/285/285 286/286/286
f 287/287/287 288/288/288 285/285/285
f 289/289/289 288/288/288 287/287/287
f 289/289/289 290/290/290 288/288/288
f 291/291/291 293/293/293 292/292/292
f 291/291/291 294/294/294 293/293/293
f 295/295/295 297/297/297 296/296/296
f 295/295/295 298/298/298 297/297/297
f 299/299/299 298/298/298 295/295/295
f 299/299/299 300/300/300 298/298/298
f 301/301/301 303/303/303 302/302/302
f 301/301/301 302/302/302 304/304/304
f 305/305/305 301/301/301 304/304/304
f 305/305/305 304/304/304 306/306/306
f 307/307/307 305/305/305 306/306/306
f 307/307/307 306/306/306 308/308/308
f 308/308/308 306/306/306 309/309/309
f 308/308/308 309/309/309 310/310/310
f 311/311/311 313/313/313 312/312/312
f 311/311/311 314/314/314 313/313/313
f 314/314/314 315/315/315 313/313/313
f 314/314/314 316/316/316 315/315/315
f 317/317/317 319/319/319 318/318/318
f 317/317/317 320/320/320 319/319/319
g wall (65)
v -1.500003 1.000001 -3.500003
v -1.500001 1 -2.500003
v -1.500001 2 -2.500003
v -1.500003 2.000001 -3.500003
vn 1 5.960464E-08 -1.812315E-06
vn 1 5.960464E-08 -1.812315E-06
vn 1 5.960464E-08 -1.812315E-06
vn 1 5.960464E-08 -1.812315E-06
vt 0 0
vt 0 1
vt 1 1
vt 1 0
f 321/321/321 323/323/323 322/322/322
f 321/321/321 324/324/324 323/323/323
g wall (61)
v -0.5000005 0.9999998 -3.5
v -1.5 0.9999993 -3.499999
v -1.500001 1.999999 -3.499999
v -0.5000011 2 -3.5
vn 4.172325E-07 -1.192093E-07 1
vn 4.172325E-07 -1.192093E-07 1
vn 4.172325E-07 -1.192093E-07 1
vn 4.172325E-07 -1.192093E-07 1
vt 0 0
vt 0 1
vt 1 1
vt 1 0
f 325/325/325 327/327/327 326/326/326
f 325/325/325 328/328/328 327/327/327
g wall (1)
v -0.4999999 -2.682209E-07 -3.5
v -1.5 -8.046627E-07 -3.499999
v -1.5 0.9999992 -3.499999
v -0.5000005 0.9999998 -3.5
vn 4.172325E-07 -1.192093E-07 1
vn 4.172325E-07 -1.192093E-07 1
vn 4.172325E-07 -1.192093E-07 1
vn 4.172325E-07 -1.192093E-07 1
vt 0 0
vt 0 1
vt 1 1
vt 1 0
f 329/329/329 331/331/331 330/330/330
f 329/329/329 332/332/332 331/331/331
g wall (62)
v 0.4999995 1 -3.5
v -0.5000005 0.9999998 -3.5
v -0.5000011 2 -3.5
v 0.4999989 2 -3.5
vn 4.172325E-07 -1.192093E-07 1
vn 4.172325E-07 -1.192093E-07 1
vn 4.172325E-07 -1.192093E-07 1
vn 4.172325E-07 -1.192093E-07 1
vt 0 0
vt 0 1
vt 1 1
vt 1 0
f 333/333/333 335/335/335 334/334/334
f 333/333/333 336/336/336 335/335/335
g Doorway (2)
v 0.1794218 0.7215269 -3.467216
v 0.1794218 0.7215269 -3.5
v -0.1794218 0.7215269 -3.5
v -0.1794218 0.7215269 -3.467216
v 0.2078602 0.7215269 -3.5
v 0.2078602 0.7482554 -3.467216
v 0.2078602 0.7482554 -3.5
v 0.2078602 0.7215269 -3.467216
v 0.2078602 2.703849E-16 -3.5
v 0.2078602 2.743998E-16 -3.467216
v 0.5 0.7215269 -3.5
v 0.5 3.061617E-16 -3.5
v 0.2078602 2.703849E-16 -3.5
v 0.2078602 0.7215269 -3.5
v 0.5 0.7482554 -3.5
v 0.2078602 0.7482554 -3.5
v 0.5 1 -3.5
v 0.2078602 1 -3.5
v 0.1794218 0.7482554 -3.5
v 0.1794218 1 -3.5
v -0.1794218 1 -3.5
v -0.1794218 0.7482554 -3.5
v -0.1794218 0.7482554 -3.467216
v 0.1794218 0.7215269 -3.467216
v -0.1794218 0.7215269 -3.467216
v 0.1794218 0.7482554 -3.467216
v 0.2078602 0.7482554 -3.467216
v 0.2078602 0.7215269 -3.467216
v 0.1794218 2.709171E-16 -3.467216
v 0.2078602 2.743998E-16 -3.467216
v 0.2078602 0.7482554 -3.5
v 0.2078602 0.7482554 -3.467216
v 0.1794218 0.7482554 -3.467216
v 0.1794218 0.7482554 -3.5
v -0.1794218 0.7482554 -3.5
v -0.1794218 0.7482554 -3.467216
v -0.2078602 0.7482554 -3.5
v -0.2078602 0.7482554 -3.467216
v 0.1794218 0.7215269 -3.5
v 0.1794218 0.7215269 -3.467216
v 0.1794218 2.709171E-16 -3.467216
v 0.1794218 2.669022E-16 -3.5
v -0.2078602 0.7215269 -3.5
v -0.2078602 0.7482554 -3.5
v -0.2078602 0.7482554 -3.467216
v -0.2078602 0.7215269 -3.467216
v -0.2078602 2.194738E-16 -3.5
v -0.2078602 2.234887E-16 -3.467216
v -0.5 0.7215269 -3.5
v -0.2078602 2.194738E-16 -3.5
v -0.5 1.83697E-16 -3.5
v -0.2078602 0.7215269 -3.5
v -0.5 0.7482554 -3.5
v -0.2078602 0.7482554 -3.5
v -0.5 1 -3.5
v -0.2078602 1 -3.5
v -0.1794218 0.7482554 -3.5
v -0.1794218 1 -3.5
v -0.2078602 0.7482554 -3.467216
v -0.1794218 0.7482554 -3.467216
v -0.1794218 0.7215269 -3.467216
v -0.2078602 0.7215269 -3.467216
v -0.1794218 2.269715E-16 -3.467216
v -0.2078602 2.234887E-16 -3.467216
v -0.1794218 0.7215269 -3.5
v -0.1794218 2.229565E-16 -3.5
v -0.1794218 2.269715E-16 -3.467216
v -0.1794218 0.7215269 -3.467216
vn 1.224647E-16 -1 1.224647E-16
vn 1.224647E-16 -1 1.224647E-16
vn 1.224647E-16 -1 1.224647E-16
vn 1.224647E-16 -1 1.224647E-16
vn 1 1.224647E-16 -7.34684E-40
vn 1 1.224647E-16 -7.34684E-40
vn 1 1.224647E-16 -7.34684E-40
vn 1 1.224647E-16 -7.34684E-40
vn 1 1.224647E-16 -7.34684E-40
vn 1 1.224647E-16 -7.34684E-40
vn -1.49976E-32 1.224647E-16 1
vn -1.49976E-32 1.224647E-16 1
vn -1.49976E-32 1.224647E-16 1
vn -1.49976E-32 1.224647E-16 1
vn -1.49976E-32 1.224647E-16 1
vn -1.49976E-32 1.224647E-16 1
vn -1.49976E-32 1.224647E-16 1
vn -1.49976E-32 1.224647E-16 1
vn -1.49976E-32 1.224647E-16 1
vn -1.49976E-32 1.224647E-16 1
vn -1.49976E-32 1.224647E-16 1
vn -1.49976E-32 1.224647E-16 1
vn -1.49976E-32 1.224647E-16 1
vn -1.49976E-32 1.224647E-16 1
vn -1.49976E-32 1.224647E-16 1
vn -1.49976E-32 1.224647E-16 1
vn -1.49976E-32 1.224647E-16 1
vn -1.49976E-32 1.224647E-16 1
vn -1.49976E-32 1.224647E-16 1
vn -1.49976E-32 1.224647E-16 1
vn -1.224647E-16 1 -1.224647E-16
vn -1.224647E-16 1 -1.224647E-16
vn -1.224647E-16 1 -1.224647E-16
vn -1.224647E-16 1 -1.224647E-16
vn -1.224647E-16 1 -1.224647E-16
vn -1.224647E-16 1 -1.224647E-16
vn -1.224647E-16 1 -1.224647E-16
vn -1.224647E-16 1 -1.224647E-16
vn -1 -1.224647E-16 7.34684E-40
vn -1 -1.224647E-16 7.34684E-40
vn -1 -1.224647E-16 7.34684E-40
vn -1 -1.224647E-16 7.34684E-40
vn -1 -1.224647E-16 7.34684E-40
vn -1 -1.224647E-16 7.34684E-40
vn -1 -1.224647E-16 7.34684E-40
vn -1 -1.224647E-16 7.34684E-40
vn -1 -1.224647E-16 7.34684E-40
vn -1 -1.224647E-16 7.34684E-40
vn -1.49976E-32 1.224647E-16 1
vn -1.49976E-32 1.224647E-16 1
vn -1.49976E-32 1.224647E-16 1
vn -1.49976E-32 1.224647E-16 1
vn -1.49976E-32 1.224647E-16 1
vn -1.49976E-32 1.224647E-16 1
vn -1.49976E-32 1.224647E-16 1
vn -1.49976E-32 1.224647E-16 1
vn -1.49976E-32 1.224647E-16 1
vn -1.49976E-32 1.224647E-16 1
vn -1.49976E-32 1.224647E-16 1
vn -1.49976E-32 1.224647E-16 1
vn -1.49976E-32 1.224647E-16 1
vn -1.49976E-32 1.224647E-16 1
vn -1.49976E-32 1.224647E-16 1
vn -1.49976E-32 1.224647E-16 1
vn 1 1.224647E-16 -7.34684E-40
vn 1 1.224647E-16 -7.34684E-40
vn 1 1.224647E-16 -7.34684E-40
vn 1 1.224647E-16 -7.34684E-40
vt 0 0
vt 0 0
vt 0 0
vt 0 0
vt 0.2921398 0.278473
vt 0.2921398 0.2517446
vt 0.2921398 0.2517446
vt 0.2921398 0.278473
vt 0.2921398 1
vt 0.2921398 1
vt 0 0.278473
vt 0 1
vt 0.2921398 1
vt 0.2921398 0.278473
vt 0 0.2517446
vt 0.2921398 0.2517446
vt 0 0
vt 0.2921398 0
vt 0.3205782 0.2517446
vt 0.3205782 0
vt 0.3205782 0
vt 0.3205782 0.2517446
vt 0.3205782 0.2517446
vt 0.3205782 0.278473
vt 0.3205782 0.278473
vt 0.3205782 0.2517446
vt 0.2921398 0.2517446
vt 0.2921398 0.278473
vt 0.3205782 1
vt 0.2921398 1
vt 0.2921398 0.2517446
vt 0.2921398 0.2517446
vt 0.3205782 0.2517446
vt 0.3205782 0.2517446
vt 0.3205782 0.2517446
vt 0.3205782 0.2517446
vt 0.2921398 0.2517446
vt 0.2921398 0.2517446
vt 0 0
vt 0 0
vt 0 0
vt 0 0
vt 0.2921398 0.278473
vt 0.2921398 0.2517446
vt 0.2921398 0.2517446
vt 0.2921398 0.278473
vt 0.2921398 1
vt 0.2921398 1
vt 0 0.278473
vt 0.2921398 1
vt 0 1
vt 0.2921398 0.278473
vt 0 0.2517446
vt 0.2921398 0.2517446
vt 0 0
vt 0.2921398 0
vt 0.3205782 0.2517446
vt 0.3205782 0
vt 0.2921398 0.2517446
vt 0.3205782 0.2517446
vt 0.3205782 0.278473
vt 0.2921398 0.278473
vt 0.3205782 1
vt 0.2921398 1
vt 0 0
vt 0 0
vt 0 0
vt 0 0
f 337/337/337 339/339/339 338/338/338
f 337/337/337 340/340/340 339/339/339
f 341/341/341 343/343/343 342/342/342
f 341/341/341 342/342/342 344/344/344
f 345/345/345 341/341/341 344/344/344
f 345/345/345 344/344/344 346/346/346
f 347/347/347 349/349/349 348/348/348
f 347/347/347 350/350/350 349/349/349
f 351/351/351 350/350/350 347/347/347
f 351/351/351 352/352/352 350/350/350
f 353/353/353 352/352/352 351/351/351
f 353/353/353 354/354/354 352/352/352
f 354/354/354 355/355/355 352/352/352
f 354/354/354 356/356/356 355/355/355
f 357/357/357 355/355/355 356/356/356
f 357/357/357 358/358/358 355/355/355
f 359/359/359 361/361/361 360/360/360
f 359/359/359 360/360/360 362/362/362
f 363/363/363 362/362/362 360/360/360
f 363/363/363 360/360/360 364/364/364
f 364/364/364 360/360/360 365/365/365
f 364/364/364 365/365/365 366/366/366
f 367/367/367 369/369/369 368/368/368
f 367/367/367 370/370/370 369/369/369
f 371/371/371 369/369/369 370/370/370
f 371/371/371 372/372/372 369/369/369
f 373/373/373 372/372/372 371/371/371
f 373/373/373 374/374/374 372/372/372
f 375/375/375 377/377/377 376/376/376
f 375/375/375 378/378/378 377/377/377
f 379/379/379 381/381/381 380/380/380
f 379/379/379 382/382/382 381/381/381
f 383/383/383 382/382/382 379/379/379
f 383/383/383 384/384/384 382/382/382
f 385/385/385 387/387/387 386/386/386
f 385/385/385 386/386/386 388/388/388
f 389/389/389 385/385/385 388/388/388
f 389/389/389 388/388/388 390/390/390
f 391/391/391 389/389/389 390/390/390
f 391/391/391 390/390/390 392/392/392
f 392/392/392 390/390/390 393/393/393
f 392/392/392 393/393/393 394/394/394
f 395/395/395 397/397/397 396/396/396
f 395/395/395 398/398/398 397/397/397
f 398/398/398 399/399/399 397/397/397
f 398/398/398 400/400/400 399/399/399
f 401/401/401 403/403/403 402/402/402
f 401/401/401 404/404/404 403/403/403
g wall (63)
v 1.5 1.000001 -3.500001
v 0.4999995 1 -3.5
v 0.4999989 2 -3.5
v 1.499999 2.000001 -3.500001
vn 4.172325E-07 -1.192093E-07 1
vn 4.172325E-07 -1.192093E-07 1
vn 4.172325E-07 -1.192093E-07 1
vn 4.172325E-07 -1.192093E-07 1
vt 0 0
vt 0 1
vt 1 1
vt 1 0
f 405/405/405 407/407/407 406/406/406
f 405/405/405 408/408/408 407/407/407
g wall (3)
v 1.5 2.682209E-07 -3.5
v 0.5000003 -2.682209E-07 -3.5
v 0.4999997 0.9999998 -3.5
v 1.5 1 -3.5
vn 4.172325E-07 -1.192093E-07 1
vn 4.172325E-07 -1.192093E-07 1
vn 4.172325E-07 -1.192093E-07 1
vn 4.172325E-07 -1.192093E-07 1
vt 0 0
vt 0 1
vt 1 1
vt 1 0
f 409/409/409 411/411/411 410/410/410
f 409/409/409 412/412/412 411/411/411
g wall (64)
v 2.5 1.000001 -3.500001
v 1.5 1.000001 -3.500001
v 1.499999 2.000001 -3.500001
v 2.499999 2.000001 -3.500001
vn 4.172325E-07 -1.192093E-07 1
vn 4.172325E-07 -1.192093E-07 1
vn 4.172325E-07 -1.192093E-07 1
vn 4.172325E-07 -1.192093E-07 1
vt 0 0
vt 0 1
vt 1 1
vt 1 0
f 413/413/413 415/415/415 414/414/414
f 413/413/413 416/416/416 415/415/415
g elevator
v 2.056226 0.733801 -3.5
v 2.056226 1 -3.5
v 2.199513 1 -3.5
v 2.199513 0.733801 -3.5
v 2.225417 1 -3.5
v 2.225417 0.733801 -3.5
v 2.5 1 -3.5
v 2.5 0.7338011 -3.5
v 2.225417 0.7172877 -3.5
v 2.5 0.7172877 -3.5
v 2.225417 0.688848 -3.5
v 2.5 0.6888481 -3.5
v 2.225417 0.6787565 -3.5
v 2.5 0.6787565 -3.5
v 2.225417 3.982207E-08 -3.5
v 2.5 6.705523E-08 -3.5
v 2.199513 3.72529E-08 -3.5
v 2.199513 0.6787565 -3.5
v 2.199513 0.6787565 -3.466565
v 2.199513 3.72529E-08 -3.466565
v 2.225417 0.733801 -3.5
v 2.225417 0.7172877 -3.466565
v 2.225417 0.733801 -3.466565
v 2.225417 0.7172877 -3.5
v 2.225417 0.688848 -3.466565
v 2.225417 0.688848 -3.5
v 2.225417 0.6787565 -3.466565
v 2.225417 0.6787565 -3.5
v 2.225417 3.982207E-08 -3.466565
v 2.225417 3.982207E-08 -3.5
v 2.199513 0.6787565 -3.5
v 2.056226 0.6787565 -3.466565
v 2.199513 0.6787565 -3.466565
v 2.056226 0.6787565 -3.5
v 1.943774 0.6787565 -3.5
v 1.943774 0.6787565 -3.466565
v 1.800487 0.6787565 -3.5
v 1.800487 0.6787565 -3.466565
v 2.056226 0.6787565 -3.466565
v 1.943774 0.6787565 -3.466565
v 1.943774 0.688848 -3.466565
v 2.056226 0.688848 -3.466565
v 2.199513 3.72529E-08 -3.466565
v 2.225417 0.6787565 -3.466565
v 2.225417 3.982207E-08 -3.466565
v 2.199513 0.6787565 -3.466565
v 2.225417 0.688848 -3.466565
v 2.199513 0.688848 -3.466565
v 2.056226 0.6787565 -3.466565
v 2.225417 0.7172877 -3.466565
v 2.056226 0.688848 -3.466565
v 2.199513 0.7172877 -3.466565
v 2.225417 0.733801 -3.466565
v 2.056226 0.7172877 -3.466565
v 2.199513 0.733801 -3.466565
v 2.056226 0.733801 -3.466565
v 2.056226 0.7172877 -3.466565
v 1.943774 0.7172877 -3.466565
v 1.943774 0.733801 -3.466565
v 2.056226 0.733801 -3.466565
v 1.943774 0.688848 -3.466565
v 1.943774 0.688848 -3.476183
v 2.056226 0.688848 -3.476183
v 2.056226 0.688848 -3.466565
v 2.056226 0.688848 -3.476183
v 1.943774 0.688848 -3.476183
v 1.943774 0.7172877 -3.476183
v 2.056226 0.7172877 -3.476183
v 2.199513 0.733801 -3.5
v 2.225417 0.733801 -3.5
v 2.225417 0.733801 -3.466565
v 2.199513 0.733801 -3.466565
v 2.056226 0.733801 -3.5
v 2.056226 0.733801 -3.466565
v 1.943774 0.733801 -3.5
v 1.943774 0.733801 -3.466565
v 1.800487 0.733801 -3.466565
v 1.800487 0.733801 -3.5
v 1.774583 0.733801 -3.466565
v 1.774583 0.733801 -3.5
v 2.056226 0.7172877 -3.476183
v 1.943774 0.7172877 -3.476183
v 1.943774 0.7172877 -3.466565
v 2.056226 0.7172877 -3.466565
v 2.056226 0.7172877 -3.466565
v 2.056226 0.688848 -3.466565
v 2.056226 0.688848 -3.476183
v 2.056226 0.7172877 -3.476183
v 1.943774 0.733801 -3.5
v 1.800487 1 -3.5
v 1.943774 1 -3.5
v 1.800487 0.733801 -3.5
v 1.774583 1 -3.5
v 1.774583 0.733801 -3.5
v 1.5 1 -3.5
v 1.5 0.7338011 -3.5
v 1.774583 0.7172877 -3.5
v 1.5 0.7172877 -3.5
v 1.774583 0.688848 -3.5
v 1.5 0.6888481 -3.5
v 1.774583 0.6787565 -3.5
v 1.5 0.6787565 -3.5
v 1.774583 3.982207E-08 -3.5
v 1.5 6.705523E-08 -3.5
v 1.800487 3.72529E-08 -3.5
v 1.800487 3.72529E-08 -3.466565
v 1.800487 0.6787565 -3.466565
v 1.800487 0.6787565 -3.5
v 1.774583 0.733801 -3.5
v 1.774583 0.733801 -3.466565
v 1.774583 0.7172877 -3.466565
v 1.774583 0.7172877 -3.5
v 1.774583 0.688848 -3.466565
v 1.774583 0.688848 -3.5
v 1.774583 0.6787565 -3.466565
v 1.774583 0.6787565 -3.5
v 1.774583 3.982207E-08 -3.466565
v 1.774583 3.982207E-08 -3.5
v 1.800487 3.72529E-08 -3.466565
v 1.774583 3.982207E-08 -3.466565
v 1.774583 0.6787565 -3.466565
v 1.800487 0.6787565 -3.466565
v 1.774583 0.688848 -3.466565
v 1.800487 0.688848 -3.466565
v 1.943774 0.6787565 -3.466565
v 1.774583 0.7172877 -3.466565
v 1.943774 0.688848 -3.466565
v 1.800487 0.7172877 -3.466565
v 1.774583 0.733801 -3.466565
v 1.943774 0.7172877 -3.466565
v 1.800487 0.733801 -3.466565
v 1.943774 0.733801 -3.466565
v 1.943774 0.7172877 -3.466565
v 1.943774 0.7172877 -3.476183
v 1.943774 0.688848 -3.476183
v 1.943774 0.688848 -3.466565
v 2.056226 0.733801 -3.5
v 1.943774 0.733801 -3.5
v 1.943774 1 -3.5
v 2.056226 1 -3.5
vn -2.614066E-07 1.224647E-16 1
vn -2.614066E-07 1.224647E-16 1
vn -2.614066E-07 1.224647E-16 1
vn -2.614066E-07 1.224647E-16 1
vn -1.735652E-07 1.224647E-16 1
vn -1.735652E-07 1.224647E-16 1
vn -1.735652E-07 1.224647E-16 1
vn -1.735652E-07 1.224647E-16 1
vn -1.735645E-07 1.224647E-16 1
vn -1.735645E-07 1.224647E-16 1
vn -1.735655E-07 1.224647E-16 1
vn -1.735655E-07 1.224647E-16 1
vn -1.735652E-07 1.224647E-16 1
vn -1.735652E-07 1.224647E-16 1
vn -1.735652E-07 1.224647E-16 1
vn -1.735652E-07 1.224647E-16 1
vn -1 -1.097681E-07 1.344271E-23
vn -1 -1.097681E-07 1.344271E-23
vn -1 -1.097681E-07 1.344271E-23
vn -1 -1.097681E-07 1.344271E-23
vn 1 9.023723E-07 -1.105087E-22
vn 1 9.023723E-07 -1.105087E-22
vn 1 9.023723E-07 -1.105087E-22
vn 1 9.023723E-07 -1.105087E-22
vn 1 1.224647E-16 -7.34684E-40
vn 1 1.224647E-16 -7.34684E-40
vn 1 1.224647E-16 -7.34684E-40
vn 1 1.224647E-16 -7.34684E-40
vn 1 1.097681E-07 -1.344272E-23
vn 1 1.097681E-07 -1.344272E-23
vn 1.224647E-16 -1 1.224647E-16
vn 1.224647E-16 -1 1.224647E-16
vn 1.224647E-16 -1 1.224647E-16
vn 1.224647E-16 -1 1.224647E-16
vn 1.224647E-16 -1 1.224647E-16
vn 1.224647E-16 -1 1.224647E-16
vn -1.651887E-07 -1 1.224647E-16
vn -1.651887E-07 -1 1.224647E-16
vn -1.49976E-32 1.224647E-16 1
vn -1.49976E-32 1.224647E-16 1
vn -1.49976E-32 1.224647E-16 1
vn -1.49976E-32 1.224647E-16 1
vn -1.438113E-07 1.224647E-16 1
vn -1.438113E-07 1.224647E-16 1
vn -1.438113E-07 1.224647E-16 1
vn -1.438113E-07 1.224647E-16 1
vn -1.438112E-07 1.224647E-16 1
vn -2.729875E-07 1.224646E-16 1
vn -2.729886E-07 -3.220395E-07 1
vn -1.438112E-07 1.224647E-16 1
vn -2.729875E-07 1.224646E-16 1
vn -1.438112E-07 1.224647E-16 1
vn -1.438112E-07 1.224647E-16 1
vn -2.599885E-07 -1.968018E-07 1
vn -1.438112E-07 1.224647E-16 1
vn -2.599885E-07 -1.968018E-07 1
vn 2.356905E-23 -1.924559E-07 1
vn 2.356905E-23 -1.924559E-07 1
vn 2.356905E-23 -1.924559E-07 1
vn 2.356905E-23 -1.924559E-07 1
vn -1.224647E-16 1 -1.224647E-16
vn -1.224647E-16 1 -1.224647E-16
vn -1.224647E-16 1 -1.224647E-16
vn -1.224647E-16 1 -1.224647E-16
vn 1.78314E-23 -1.456044E-07 1
vn 1.78314E-23 -1.456044E-07 1
vn 1.78314E-23 -1.456044E-07 1
vn 1.78314E-23 -1.456044E-07 1
vn -1.224647E-16 1 -1.224647E-16
vn -2.150614E-06 1 -1.224647E-16
vn -2.150614E-06 1 -1.224647E-16
vn -1.224647E-16 1 -1.224647E-16
vn -1.224647E-16 1 -1.224647E-16
vn -1.224647E-16 1 -1.224647E-16
vn -1.224647E-16 1 -1.224647E-16
vn -1.224647E-16 1 -1.224647E-16
vn 1.259628E-07 1 -1.224647E-16
vn 1.259628E-07 1 -1.224647E-16
vn 1.144983E-06 1 -1.224647E-16
vn 1.144983E-06 1 -1.224647E-16
vn 1.224647E-16 -1 1.224647E-16
vn 1.224647E-16 -1 1.224647E-16
vn 1.224647E-16 -1 1.224647E-16
vn 1.224647E-16 -1 1.224647E-16
vn -1 -1.224647E-16 -4.255855E-07
vn -1 -1.224647E-16 -4.255855E-07
vn -1 -1.224647E-16 -4.255855E-07
vn -1 -1.224647E-16 -4.255855E-07
vn 2.614066E-07 1.224647E-16 1
vn 2.614066E-07 1.224647E-16 1
vn 2.614066E-07 1.224647E-16 1
vn 2.614066E-07 1.224647E-16 1
vn 1.735652E-07 1.224647E-16 1
vn 1.735652E-07 1.224647E-16 1
vn 1.735652E-07 1.224647E-16 1
vn 1.735652E-07 1.224647E-16 1
vn 1.735645E-07 1.224647E-16 1
vn 1.735645E-07 1.224647E-16 1
vn 1.735653E-07 1.224647E-16 1
vn 1.735653E-07 1.224647E-16 1
vn 1.735652E-07 1.224647E-16 1
vn 1.735652E-07 1.224647E-16 1
vn 1.735652E-07 1.224647E-16 1
vn 1.735652E-07 1.224647E-16 1
vn 1 -1.097681E-07 1.344271E-23
vn 1 -1.097681E-07 1.344271E-23
vn 1 -1.097681E-07 1.344271E-23
vn 1 -1.097681E-07 1.344271E-23
vn -1 9.023736E-07 -1.105089E-22
vn -1 9.023736E-07 -1.105089E-22
vn -1 9.023736E-07 -1.105089E-22
vn -1 9.023736E-07 -1.105089E-22
vn -1 -1.224647E-16 7.34684E-40
vn -1 -1.224647E-16 7.34684E-40
vn -1 -1.224647E-16 7.34684E-40
vn -1 -1.224647E-16 7.34684E-40
vn -1 1.097681E-07 -1.344272E-23
vn -1 1.097681E-07 -1.344272E-23
vn 1.438112E-07 1.224647E-16 1
vn 1.438112E-07 1.224647E-16 1
vn 1.438112E-07 1.224647E-16 1
vn 1.438112E-07 1.224647E-16 1
vn 1.438112E-07 1.224647E-16 1
vn 2.729875E-07 1.224647E-16 1
vn 2.729883E-07 -3.220395E-07 1
vn 1.438112E-07 1.224647E-16 1
vn 2.729875E-07 1.224647E-16 1
vn 1.438112E-07 1.224647E-16 1
vn 1.438112E-07 1.224647E-16 1
vn 2.599887E-07 -2.105622E-07 1
vn 1.438112E-07 1.224647E-16 1
vn 2.599887E-07 -2.105622E-07 1
vn 1 1.224646E-16 -4.255858E-07
vn 1 1.224646E-16 -4.255858E-07
vn 1 1.224646E-16 -4.255858E-07
vn 1 1.224646E-16 -4.255858E-07
vn -1.49976E-32 1.224647E-16 1
vn -1.49976E-32 1.224647E-16 1
vn -1.49976E-32 1.224647E-16 1
vn -1.49976E-32 1.224647E-16 1
vt 0.733801 0.5704545
vt 1 0.5704545
vt 1 0.75
vt 0.7338011 0.75
vt 1 0.7715517
vt 0.733801 0.7715518
vt 1 1
vt 0.733801 1
vt 0.7172877 0.7715517
vt 0.7172877 1
vt 0.6888479 0.7715517
vt 0.688848 1
vt 0.6787565 0.7715517
vt 0.6787565 1
vt 0 0.7715517
vt 0 1
vt 0 0
vt 0 0
vt 0 0
vt 0 0
vt 0.733801 0.7715518
vt 0.7172877 0.7715517
vt 0.733801 0.7715518
vt 0.7172877 0.7715517
vt 0.6888479 0.7715517
vt 0.6888479 0.7715517
vt 0.6787565 0.7715517
vt 0.6787565 0.7715517
vt 0 0.7715517
vt 0 0.7715517
vt 0 0
vt 0 0
vt 0 0
vt 0 0
vt 0 0
vt 0 0
vt 0 0
vt 0 0
vt 0.6787565 0.5704545
vt 0.6787565 0.5704545
vt 0.688848 0.5704546
vt 0.688848 0.5704546
vt 0 0.75
vt 0.6787565 0.7715517
vt 0 0.7715517
vt 0.6787565 0.75
vt 0.6888479 0.7715517
vt 0.688848 0.75
vt 0.6787565 0.5704545
vt 0.7172877 0.7715517
vt 0.688848 0.5704546
vt 0.7172877 0.75
vt 0.733801 0.7715518
vt 0.7172877 0.5704545
vt 0.7338011 0.75
vt 0.733801 0.5704545
vt 0.7172877 0.5704545
vt 0.7172877 0.5704545
vt 0.733801 0.5704545
vt 0.733801 0.5704545
vt 0.688848 0.5704546
vt 0.688848 0.5704546
vt 0.688848 0.5704546
vt 0.688848 0.5704546
vt 0.688848 0.5704546
vt 0.688848 0.5704546
vt 0.7172877 0.5704545
vt 0.7172877 0.5704545
vt 0.7338011 0.75
vt 0.733801 0.7715518
vt 0.733801 0.7715518
vt 0.7338011 0.75
vt 0.733801 0.5704545
vt 0.733801 0.5704545
vt 0.733801 0.5704545
vt 0.733801 0.5704545
vt 0.7338011 0.75
vt 0.7338011 0.75
vt 0.733801 0.7715518
vt 0.733801 0.7715518
vt 0.7172877 0.5704545
vt 0.7172877 0.5704545
vt 0.7172877 0.5704545
vt 0.7172877 0.5704545
vt 0.7172877 0.5704545
vt 0.688848 0.5704546
vt 0.688848 0.5704546
vt 0.7172877 0.5704545
vt 0.733801 0.5704545
vt 1 0.75
vt 1 0.5704545
vt 0.7338011 0.75
vt 1 0.7715517
vt 0.733801 0.7715518
vt 1 1
vt 0.733801 1
vt 0.7172877 0.7715517
vt 0.7172877 1
vt 0.6888479 0.7715517
vt 0.688848 1
vt 0.6787565 0.7715517
vt 0.6787565 1
vt 0 0.7715517
vt 0 1
vt 0 0
vt 0 0
vt 0 0
vt 0 0
vt 0.733801 0.7715518
vt 0.733801 0.7715518
vt 0.7172877 0.7715517
vt 0.7172877 0.7715517
vt 0.6888479 0.7715517
vt 0.6888479 0.7715517
vt 0.6787565 0.7715517
vt 0.6787565 0.7715517
vt 0 0.7715517
vt 0 0.7715517
vt 0 0.75
vt 0 0.7715517
vt 0.6787565 0.7715517
vt 0.6787565 0.75
vt 0.6888479 0.7715517
vt 0.688848 0.75
vt 0.6787565 0.5704545
vt 0.7172877 0.7715517
vt 0.688848 0.5704546
vt 0.7172877 0.75
vt 0.733801 0.7715518
vt 0.7172877 0.5704545
vt 0.7338011 0.75
vt 0.733801 0.5704545
vt 0.7172877 0.5704545
vt 0.7172877 0.5704545
vt 0.688848 0.5704546
vt 0.688848 0.5704546
vt 0.733801 0.5704545
vt 0.733801 0.5704545
vt 1 0.5704545
vt 1 0.5704545
f 417/417/417 419/419/419 418/418/418
f 417/417/417 420/420/420 419/419/419
f 420/420/420 421/421/421 419/419/419
f 420/420/420 422/422/422 421/421/421
f 422/422/422 423/423/423 421/421/421
f 422/422/422 424/424/424 423/423/423
f 425/425/425 424/424/424 422/422/422
f 425/425/425 426/426/426 424/424/424
f 427/427/427 426/426/426 425/425/425
f 427/427/427 428/428/428 426/426/426
f 429/429/429 428/428/428 427/427/427
f 429/429/429 430/430/430 428/428/428
f 431/431/431 430/430/430 429/429/429
f 431/431/431 432/432/432 430/430/430
f 433/433/433 435/435/435 434/434/434
f 433/433/433 436/436/436 435/435/435
f 437/437/437 439/439/439 438/438/438
f 437/437/437 438/438/438 440/440/440
f 440/440/440 438/438/438 441/441/441
f 440/440/440 441/441/441 442/442/442
f 442/442/442 441/441/441 443/443/443
f 442/442/442 443/443/443 444/444/444
f 444/444/444 443/443/443 445/445/445
f 444/444/444 445/445/445 446/446/446
f 447/447/447 449/449/449 448/448/448
f 447/447/447 448/448/448 450/450/450
f 451/451/451 450/450/450 448/448/448
f 451/451/451 448/448/448 452/452/452
f 453/453/453 451/451/451 452/452/452
f 453/453/453 452/452/452 454/454/454
f 455/455/455 457/457/457 456/456/456
f 455/455/455 458/458/458 457/457/457
f 459/459/459 461/461/461 460/460/460
f 459/459/459 460/460/460 462/462/462
f 462/462/462 460/460/460 463/463/463
f 462/462/462 463/463/463 464/464/464
f 465/465/465 462/462/462 464/464/464
f 464/464/464 463/463/463 466/466/466
f 465/465/465 464/464/464 467/467/467
f 464/464/464 466/466/466 468/468/468
f 467/467/467 464/464/464 468/468/468
f 468/468/468 466/466/466 469/469/469
f 467/467/467 468/468/468 470/470/470
f 468/468/468 469/469/469 471/471/471
f 470/470/470 468/468/468 471/471/471
f 470/470/470 471/471/471 472/472/472
f 473/473/473 475/475/475 474/474/474
f 473/473/473 476/476/476 475/475/475
f 477/477/477 479/479/479 478/478/478
f 477/477/477 480/480/480 479/479/479
f 481/481/481 483/483/483 482/482/482
f 481/481/481 484/484/484 483/483/483
f 485/485/485 487/487/487 486/486/486
f 485/485/485 488/488/488 487/487/487
f 489/489/489 488/488/488 485/485/485
f 489/489/489 490/490/490 488/488/488
f 490/490/490 489/489/489 491/491/491
f 490/490/490 491/491/491 492/492/492
f 491/491/491 493/493/493 492/492/492
f 491/491/491 494/494/494 493/493/493
f 494/494/494 495/495/495 493/493/493
f 494/494/494 496/496/496 495/495/495
f 497/497/497 499/499/499 498/498/498
f 497/497/497 500/500/500 499/499/499
f 501/501/501 503/503/503 502/502/502
f 501/501/501 504/504/504 503/503/503
f 505/505/505 507/507/507 506/506/506
f 505/505/505 506/506/506 508/508/508
f 508/508/508 506/506/506 509/509/509
f 508/508/508 509/509/509 510/510/510
f 510/510/510 509/509/509 511/511/511
f 510/510/510 511/511/511 512/512/512
f 513/513/513 510/510/510 512/512/512
f 513/513/513 512/512/512 514/514/514
f 515/515/515 513/513/513 514/514/514
f 515/515/515 514/514/514 516/516/516
f 517/517/517 515/515/515 516/516/516
f 517/517/517 516/516/516 518/518/518
f 519/519/519 517/517/517 518/518/518
f 519/519/519 518/518/518 520/520/520
f 521/521/521 523/523/523 522/522/522
f 521/521/521 524/524/524 523/523/523
f 525/525/525 527/527/527 526/526/526
f 525/525/525 528/528/528 527/527/527
f 528/528/528 529/529/529 527/527/527
f 528/528/528 530/530/530 529/529/529
f 530/530/530 531/531/531 529/529/529
f 530/530/530 532/532/532 531/531/531
f 532/532/532 533/533/533 531/531/531
f 532/532/532 534/534/534 533/533/533
f 535/535/535 537/537/537 536/536/536
f 535/535/535 538/538/538 537/537/537
f 538/538/538 539/539/539 537/537/537
f 538/538/538 540/540/540 539/539/539
f 541/541/541 540/540/540 538/538/538
f 540/540/540 542/542/542 539/539/539
f 541/541/541 543/543/543 540/540/540
f 540/540/540 544/544/544 542/542/542
f 543/543/543 544/544/544 540/540/540
f 544/544/544 545/545/545 542/542/542
f 543/543/543 546/546/546 544/544/544
f 544/544/544 547/547/547 545/545/545
f 546/546/546 547/547/547 544/544/544
f 546/546/546 548/548/548 547/547/547
f 549/549/549 551/551/551 550/550/550
f 549/549/549 552/552/552 551/551/551
f 553/553/553 555/555/555 554/554/554
f 553/553/553 556/556/556 555/555/555
